<svg xmlns="http://www.w3.org/2000/svg" xmlns:xlink="http://www.w3.org/1999/xlink" width="98" zoomAndPan="magnify" viewBox="0 0 73.5 32.999998" height="44" preserveAspectRatio="xMidYMid meet" version="1.0"><defs><g/><clipPath id="17cf01dffa"><path d="M 25.578125 3.578125 L 47.6875 3.578125 L 47.6875 16.175781 L 25.578125 16.175781 Z M 25.578125 3.578125 " clip-rule="nonzero"/></clipPath><clipPath id="cfd1ad941b"><path d="M 47.476562 6.238281 L 48.867188 6.238281 L 48.867188 7.78125 L 47.476562 7.78125 Z M 47.476562 6.238281 " clip-rule="nonzero"/></clipPath><clipPath id="eef36a1ca8"><path d="M 35 1.1875 L 38 1.1875 L 38 3 L 35 3 Z M 35 1.1875 " clip-rule="nonzero"/></clipPath></defs><g clip-path="url(#17cf01dffa)"><path fill="#ff914d" d="M 47.667969 8.550781 C 47.460938 8.332031 46.617188 9.371094 46.5 9.488281 C 45.707031 10.269531 44.574219 11.257812 43.386719 11.222656 C 42.246094 11.1875 41.769531 9.941406 41.667969 8.96875 C 41.613281 8.347656 41.664062 7.703125 41.882812 7.113281 C 41.945312 6.953125 41.808594 6.789062 41.648438 6.789062 C 41.351562 6.789062 41.214844 7.339844 41.125 7.535156 C 40.738281 8.359375 40.421875 9.292969 39.753906 9.9375 C 38.609375 11.042969 37.730469 9.492188 37.515625 8.464844 C 37.304688 7.476562 37.296875 6.457031 37.273438 5.449219 C 37.261719 4.917969 37.277344 4.367188 37.179688 3.84375 C 37.082031 3.34375 36.660156 3.742188 36.636719 4.070312 C 36.496094 5.984375 36.359375 8.449219 35.335938 10.136719 C 34.722656 11.152344 33.78125 11.007812 33.097656 10.179688 C 32.296875 9.214844 32.171875 8.191406 31.890625 7.035156 C 31.757812 6.496094 31.414062 7.164062 31.457031 7.457031 C 31.546875 8.097656 31.632812 8.714844 31.621094 9.363281 C 31.605469 10.417969 31.410156 11.972656 30.105469 12.136719 C 28.960938 12.226562 28.375 11.253906 27.46875 10.957031 C 27.488281 10.933594 27.492188 10.929688 27.476562 10.945312 C 27.191406 10.648438 26.667969 10.191406 26.324219 9.8125 C 26.242188 9.734375 25.78125 9.101562 25.636719 9.566406 C 25.519531 9.9375 26.566406 11.113281 26.773438 11.441406 C 27.019531 11.832031 28.625 14.929688 28.925781 14.769531 C 29.359375 14.535156 27.523438 11.785156 27.285156 11.402344 C 28.199219 12.167969 29.5625 13.054688 30.785156 12.464844 C 31.894531 11.933594 32.113281 10.519531 32.132812 9.414062 C 32.710938 10.535156 34.007812 12.078125 35.308594 10.917969 C 36.359375 9.988281 36.644531 8.289062 36.855469 6.976562 C 36.917969 8.15625 37 9.8125 38.058594 10.578125 C 39.460938 11.605469 40.625 9.871094 41.148438 8.757812 C 41.183594 9.898438 41.539062 11.3125 42.714844 11.769531 C 44.109375 12.3125 45.519531 11.191406 46.449219 10.273438 C 45.980469 11.175781 45.496094 12.050781 45.09375 12.980469 C 44.925781 13.371094 44.757812 13.761719 44.554688 14.136719 C 44.230469 14.730469 44.21875 14.527344 43.65625 14.253906 C 41.5 13.207031 38.984375 13.15625 36.644531 13.3125 C 34.425781 13.527344 31.636719 13.023438 29.644531 14.25 C 28.707031 14.824219 28.785156 16.828125 29.960938 15.960938 C 30.988281 15.234375 32.308594 15.042969 33.535156 14.980469 C 35.957031 14.851562 38.601562 14.863281 41.011719 15.128906 C 41.96875 15.234375 42.914062 15.566406 43.855469 15.664062 C 43.960938 15.695312 44.558594 15.910156 44.351562 15.519531 C 44.234375 15.300781 43.636719 15.226562 43.46875 15.175781 C 41.199219 14.476562 38.921875 14.636719 36.59375 14.5625 C 34.324219 14.492188 31.453125 14.199219 29.527344 15.675781 C 28.628906 13.90625 34.394531 13.914062 35.191406 13.902344 C 37.554688 13.867188 39.878906 13.636719 42.191406 14.269531 C 43.152344 14.53125 44.230469 15.660156 44.851562 14.507812 C 45.316406 13.652344 45.542969 12.691406 45.960938 11.816406 C 46.105469 11.550781 47.835938 8.734375 47.667969 8.550781 " fill-opacity="1" fill-rule="nonzero"/></g><g clip-path="url(#cfd1ad941b)"><path fill="#ff914d" d="M 48.382812 7.171875 C 48.339844 7.367188 48.0625 7.335938 47.980469 7.179688 C 47.871094 6.792969 48.4375 6.585938 48.382812 7.171875 M 48.867188 7.011719 C 48.75 5.816406 47.367188 6.164062 47.523438 7.230469 C 47.640625 8.070312 48.941406 7.875 48.867188 7.011719 " fill-opacity="1" fill-rule="nonzero"/></g><path fill="#ff914d" d="M 41.578125 5.515625 C 41.644531 5.230469 42.261719 5.144531 42.332031 5.457031 C 42.355469 5.9375 41.515625 6.023438 41.578125 5.515625 M 41.417969 5.980469 C 42.050781 6.667969 43.199219 5.480469 42.339844 4.960938 C 41.722656 4.589844 40.882812 5.390625 41.417969 5.980469 " fill-opacity="1" fill-rule="nonzero"/><g clip-path="url(#eef36a1ca8)"><path fill="#ff914d" d="M 36.445312 2.09375 C 36.4375 1.78125 36.976562 1.511719 37.046875 1.890625 C 37.054688 2.234375 36.523438 2.511719 36.445312 2.09375 M 36.710938 2.773438 C 37.664062 2.773438 37.789062 1.199219 36.738281 1.238281 C 35.816406 1.273438 35.691406 2.773438 36.710938 2.773438 " fill-opacity="1" fill-rule="nonzero"/></g><path fill="#ff914d" d="M 31.046875 5.339844 C 31.207031 5.332031 31.726562 5.011719 31.53125 5.503906 C 31.332031 5.886719 30.832031 5.71875 31.046875 5.339844 M 30.679688 5.957031 C 31.300781 6.824219 32.640625 5.433594 31.78125 4.820312 C 31.082031 4.324219 30.175781 5.257812 30.679688 5.957031 " fill-opacity="1" fill-rule="nonzero"/><path fill="#ff914d" d="M 24.625 8.3125 C 24.707031 7.960938 25.21875 8.015625 25.179688 8.382812 C 25.089844 8.804688 24.582031 8.730469 24.625 8.3125 M 25.574219 7.929688 C 24.859375 6.800781 23.367188 8.410156 24.523438 9.078125 C 25.207031 9.476562 26.003906 8.613281 25.574219 7.929688 " fill-opacity="1" fill-rule="nonzero"/><g fill="#ff914d" fill-opacity="1"><g transform="translate(10.652342, 25.286488)"><g><path d="M 4.714844 0.105469 C 7.03125 0.105469 9.308594 -2.050781 9.308594 -4.261719 C 9.308594 -6.472656 7.085938 -8.632812 4.820312 -8.632812 C 2.597656 -8.632812 0.429688 -6.472656 0.429688 -4.261719 C 0.429688 -2.050781 2.554688 0.105469 4.714844 0.105469 Z M 4.734375 0 C 3.359375 0 2.007812 -2.117188 2.007812 -4.261719 C 2.007812 -6.410156 3.394531 -8.527344 4.800781 -8.527344 C 6.28125 -8.527344 7.730469 -6.410156 7.730469 -4.261719 C 7.730469 -2.117188 6.25 0 4.734375 0 Z M 4.734375 0 "/></g></g></g><g fill="#ff914d" fill-opacity="1"><g transform="translate(20.549604, 25.286488)"><g><path d="M 1.289062 0 L 2.738281 0 L 2.738281 -3.84375 L 3.351562 -3.84375 C 5.152344 -3.84375 6.914062 -4.789062 6.914062 -6.109375 C 6.914062 -7.332031 5.445312 -8.527344 3.953125 -8.527344 L 1.289062 -8.527344 Z M 2.738281 -4.144531 L 2.738281 -8.277344 L 3.585938 -8.277344 C 4.574219 -8.277344 5.550781 -7.324219 5.550781 -6.355469 C 5.550781 -5.066406 4.464844 -4.144531 3.351562 -4.144531 Z M 2.738281 -4.144531 "/></g></g></g><g fill="#ff914d" fill-opacity="1"><g transform="translate(27.67735, 25.286488)"><g/></g></g><g fill="#ff914d" fill-opacity="1"><g transform="translate(30.71523, 25.286488)"><g><path d="M 3.210938 0.105469 C 4.53125 0.105469 5.832031 -1.09375 5.832031 -2.328125 C 5.832031 -3.285156 4.863281 -4.574219 3.652344 -5.015625 C 2.597656 -5.402344 1.761719 -6.261719 1.761719 -6.839844 C 1.761719 -7.6875 2.351562 -8.527344 2.964844 -8.527344 C 3.328125 -8.527344 3.769531 -8.34375 4.15625 -8.074219 C 4.273438 -7.957031 4.757812 -7.417969 5.21875 -6.894531 L 5.292969 -6.808594 L 5.433594 -6.808594 L 5.433594 -7.976562 L 5.378906 -7.976562 L 5.367188 -7.859375 C 5.359375 -7.742188 5.144531 -7.773438 4.917969 -7.925781 C 4.390625 -8.332031 3.609375 -8.644531 2.964844 -8.644531 C 1.78125 -8.644531 0.632812 -7.484375 0.632812 -6.292969 C 0.632812 -5.28125 1.589844 -3.953125 2.78125 -3.523438 C 3.832031 -3.136719 4.671875 -2.382812 4.671875 -1.921875 C 4.671875 -0.976562 3.953125 -0.0429688 3.210938 -0.0429688 C 2.800781 -0.0429688 2.253906 -0.34375 1.78125 -0.773438 C 2.0625 -0.527344 1.546875 -1.179688 0.730469 -2.117188 L 0.65625 -2.199219 L 0.503906 -2.179688 L 0.503906 -0.613281 L 0.558594 -0.613281 L 0.570312 -0.828125 C 0.578125 -1.0625 0.878906 -1.042969 1.179688 -0.804688 C 1.773438 -0.277344 2.578125 0.105469 3.210938 0.105469 Z M 3.210938 0.105469 "/></g></g></g><g fill="#ff914d" fill-opacity="1"><g transform="translate(36.962742, 25.286488)"><g><path d="M 1.308594 0 L 2.757812 0 L 2.757812 -4.347656 L 6.410156 -4.347656 L 6.410156 0 L 7.859375 0 L 7.859375 -8.527344 L 6.410156 -8.527344 L 6.410156 -4.464844 L 2.757812 -4.464844 L 2.757812 -8.527344 L 1.308594 -8.527344 Z M 1.308594 0 "/></g></g></g><g fill="#ff914d" fill-opacity="1"><g transform="translate(45.829487, 25.286488)"><g><path d="M 4.714844 0.105469 C 7.03125 0.105469 9.308594 -2.050781 9.308594 -4.261719 C 9.308594 -6.472656 7.085938 -8.632812 4.820312 -8.632812 C 2.597656 -8.632812 0.429688 -6.472656 0.429688 -4.261719 C 0.429688 -2.050781 2.554688 0.105469 4.714844 0.105469 Z M 4.734375 0 C 3.359375 0 2.007812 -2.117188 2.007812 -4.261719 C 2.007812 -6.410156 3.394531 -8.527344 4.800781 -8.527344 C 6.28125 -8.527344 7.730469 -6.410156 7.730469 -4.261719 C 7.730469 -2.117188 6.25 0 4.734375 0 Z M 4.734375 0 "/></g></g></g><g fill="#ff914d" fill-opacity="1"><g transform="translate(55.726749, 25.286488)"><g><path d="M 1.289062 0 L 2.738281 0 L 2.738281 -3.84375 L 3.351562 -3.84375 C 5.152344 -3.84375 6.914062 -4.789062 6.914062 -6.109375 C 6.914062 -7.332031 5.445312 -8.527344 3.953125 -8.527344 L 1.289062 -8.527344 Z M 2.738281 -4.144531 L 2.738281 -8.277344 L 3.585938 -8.277344 C 4.574219 -8.277344 5.550781 -7.324219 5.550781 -6.355469 C 5.550781 -5.066406 4.464844 -4.144531 3.351562 -4.144531 Z M 2.738281 -4.144531 "/></g></g></g></svg>